<?xml version="1.0" encoding="iso-8859-1"?>
<!-- Uploaded to: SVG Repo, www.svgrepo.com, Generator: SVG Repo Mixer Tools -->
<!DOCTYPE svg PUBLIC "-//W3C//DTD SVG 1.1//EN" "http://www.w3.org/Graphics/SVG/1.1/DTD/svg11.dtd">
<svg fill="#FFFFFF" version="1.1" id="Capa_1" xmlns="http://www.w3.org/2000/svg" xmlns:xlink="http://www.w3.org/1999/xlink"
	 width="20px" height="20px" viewBox="0 0 48.117 48.117"
	 xml:space="preserve">
<g>
	<path d="M30.621,4.122c-2.995-1.345-6.206-2.018-9.418-2.018c-2.651,0-5.295,0.482-7.826,1.399L10.76,0.586
		C9.918-0.352,8.919-0.141,8.529,1.058L4.014,14.88c-0.391,1.196,0.291,1.955,1.523,1.697l14.228-3
		c1.232-0.261,1.55-1.232,0.708-2.167L18.49,9.198c3.13-0.532,6.379-0.16,9.33,1.165c3.938,1.769,6.951,4.962,8.485,8.998
		c1.535,4.033,1.405,8.423-0.362,12.36c-1.767,3.938-4.962,6.951-8.997,8.485c-4.033,1.532-8.424,1.405-12.361-0.36
		c0,0-0.627,1.396-1.401,3.121c-0.774,1.721,0.46,4.006,2.914,4.571c4.39,1.008,8.978,0.699,13.281-0.936
		c5.743-2.188,10.291-6.478,12.807-12.08c2.516-5.604,2.699-11.854,0.514-17.596C40.516,11.185,36.226,6.637,30.621,4.122z"/>
</g>
</svg>