<svg xmlns="http://www.w3.org/2000/svg" viewBox="0 0 1009.81 414.48"><defs><style>.cls-1{fill:#b6c3c7;}.cls-2{fill:#ffca4b;}.cls-3{fill:#fd9800;}.cls-4{fill:#eb6300;}</style></defs><title>123</title><g id="Layer_1" data-name="Layer 1"><path class="cls-1" d="M478.26,126.57h34.31v65.14h62.36V126.57h34.31V287.91H574.93V221.38H512.57v66.53H478.26Z"/><path class="cls-1" d="M716.1,244.1h32v23.41l-20.16,20.4H662.09l-20.17-20.4V182.43L662.09,162h65.84l20.16,20.4v48.69H674.38V261H716.1Zm-41.72-55.18v25.5H716.1v-25.5Z"/><path class="cls-1" d="M769.88,287.91V259.4l35.7-34.78L771,190.55V162h33.15V182.9l22,21.32L848,182.9V162h33.15v28.52l-34.54,34.07,35.7,34.78v28.51H849.16V267.05l-22.95-22.49L803,267.05v20.86Z"/><path class="cls-1" d="M1009.81,287.91H982v-14.6l-14.37,14.6H924l-20.4-20.4v-30.6l20.4-20.4h53.78v-26H936.56v12.28h-31.3v-20.4l20.4-20.4h63.75l20.4,20.4Zm-74.18-53.55v27.35h33.84l8.35-7.18V234.36Z"/><polygon class="cls-2" points="179.06 374.74 34.41 291.23 80.94 264.38 179.06 321.03 179.06 290.8 34.41 207.28 80.92 180.42 179.06 237.08 179.06 206.86 34.41 123.34 34.48 123.3 0 103.38 0 103.38 0 311.1 179.06 414.48 179.06 414.48 179.06 374.74 179.06 374.74"/><polygon class="cls-3" points="179.06 0 0 103.38 34.48 123.3 179.06 39.73 323.71 123.34 358.12 103.38 179.06 0"/><polygon class="cls-4" points="323.71 123.34 179.06 206.86 179.06 237.08 277.21 180.42 323.71 207.28 179.06 290.8 179.06 321.03 277.17 264.38 323.71 291.23 179.06 374.74 179.06 414.48 358.12 311.1 358.12 103.38 323.71 123.34"/></g></svg>