<svg xmlns="http://www.w3.org/2000/svg" viewBox="0 0 1308.09 415.12"><defs><style>.cls-1{fill:#ffca4b;}.cls-2{fill:#fd9800;}.cls-3{fill:#eb6300;}.cls-4{fill:#b6c3c7;}</style></defs><title>Hexa_Icon+Name+Tagline</title><g id="Layer_1" data-name="Layer 1"><polygon class="cls-1" points="179.34 375.32 34.46 291.68 81.06 264.79 179.34 321.53 179.34 291.25 34.46 207.6 81.04 180.7 179.34 237.45 179.34 207.18 34.46 123.53 34.53 123.5 0 103.54 0 103.54 0 311.58 179.34 415.12 179.34 415.12 179.34 375.32 179.34 375.32"/><polygon class="cls-2" points="179.34 0 0 103.54 34.53 123.5 179.34 39.8 324.21 123.53 358.67 103.54 179.34 0"/><polygon class="cls-3" points="324.21 123.53 179.34 207.18 179.34 237.45 277.64 180.69 324.21 207.6 179.34 291.25 179.34 321.53 277.6 264.8 324.21 291.68 179.34 375.32 179.34 415.12 358.67 311.58 358.67 103.54 324.21 123.53"/><path class="cls-4" d="M482.65,55.82h32.48v61.66h59V55.82h32.48V208.55H574.16v-63h-59v63H482.65Z"/><path class="cls-4" d="M707.8,167.07h30.28v22.17L719,208.55H656.67l-19.09-19.31V108.7l19.09-19.31H719l19.09,19.31v46.09H668.3v28.3h39.5Zm-39.5-52.22V139h39.5V114.85Z"/><path class="cls-4" d="M758.7,208.55v-27l33.8-32.92-32.7-32.26v-27h31.38v19.75L812,129.33l20.62-20.19V89.39H864v27l-32.69,32.26,33.79,32.92v27H833.75V188.8L812,167.51,790.08,188.8v19.75Z"/><path class="cls-4" d="M985.82,208.55H959.49V194.72l-13.61,13.83H904.63l-19.31-19.31v-29L904.63,141h50.91V116.38H916.48V128H886.85V108.7l19.31-19.31h60.35l19.31,19.31ZM915.6,157.86v25.89h32l7.9-6.8V157.86Z"/><path class="cls-4" d="M482.65,340.08v-65.6h38l6.53,6.53v27.36l-9.75,9.75H492.5v22Zm30.49-30.67,4.26-4.26V283.38H492.5v26Z"/><path class="cls-4" d="M572.11,289.25l6.53,6.53v37.68l-6.53,6.62H545.32l-6.53-6.62V295.78l6.53-6.53ZM569.18,298H548.25v33.41h20.93Z"/><path class="cls-4" d="M592.46,340.08V270.31h9.47v69.77Z"/><path class="cls-4" d="M615.93,280.06v-8.89h9.85v8.89Zm.19,60V289.25h9.47v50.83Z"/><path class="cls-4" d="M669,321.43h9.18v12l-6.53,6.62H646.13l-6.53-6.62V295.78l6.53-6.53h25.56l6.53,6.53v12H669v-9.94H648.88v33.51H669Z"/><path class="cls-4" d="M700.94,343.3v7.76h21.3V337.34H697.62l-6.53-6.54V289.25h9.47V329h21.68V289.25h9.46v63.52L725,359.3h-26.5l-6.72-6.53V343.3Z"/><path class="cls-4" d="M772.12,340.08l-6.63-6.62V281l6.63-6.53H806.2l6.72,6.53v52.45l-6.72,6.62Zm3.22-9h27.74V283.38H775.34Z"/><path class="cls-4" d="M827.21,340.08V289.25h8.52v6.43l6.53-6.43H854v9.08H842.07l-5.39,5.12v36.63Z"/><path class="cls-4" d="M890.83,321.43H900v12l-6.53,6.62H867.92l-6.54-6.62V295.78l6.54-6.53h25.56l6.53,6.53v12h-9.18v-9.94H870.66v33.51h20.17Z"/><path class="cls-4" d="M912.88,340.08V270.31h9.47v23.95l5.11-5H947l6.63,6.53v44.3H944V298.14H927.27l-4.92,4.36v37.58Z"/><path class="cls-4" d="M997.32,323h9.27v10.51l-6.62,6.62h-26l-6.53-6.62V295.78l6.53-6.53h26l6.62,6.53v20.73H976.68v15.62h20.64Zm-20.64-25.66v13.54h20.64V297.29Z"/><path class="cls-4" d="M1050.23,327.11l-29.91-20.45V295.78l6.53-6.53h25.37l6.63,6.53v9.56h-9.09v-8.62h-20.07v5.5l29.91,20.35v10.89l-6.53,6.62h-26.5l-6.63-6.62v-8.34h9v7.48h21.3Z"/><path class="cls-4" d="M1081.09,340.08l-6.63-6.62V297.1h-7v-7.85h7V278.93h9.47v10.32H1097v7.85h-13.06v34.08H1098v8.9Z"/><path class="cls-4" d="M1107.4,340.08V289.25h8.52v6.43l6.54-6.43h11.74v9.08h-11.93l-5.4,5.12v36.63Z"/><path class="cls-4" d="M1180.11,340.08H1172v-5.49l-5.39,5.49h-19.12l-6.63-6.62V318.31l6.63-6.63h23.38v-14.1h-20.54v6.81h-9.09v-8.61l6.62-6.53h25.76l6.53,6.53ZM1150,317.65v14.57h16.38l4.45-4v-10.6Z"/><path class="cls-4" d="M1202.44,340.08l-6.62-6.62V297.1h-7v-7.85h7V278.93h9.46v10.32h13.07v7.85h-13.07v34.08h14.11v8.9Z"/><path class="cls-4" d="M1261,289.25l6.53,6.53v37.68l-6.53,6.62h-26.8l-6.53-6.62V295.78l6.53-6.53ZM1258,298h-20.92v33.41H1258Z"/><path class="cls-4" d="M1281.29,340.08V289.25h8.53v6.43l6.53-6.43h11.74v9.08h-11.93l-5.4,5.12v36.63Z"/></g></svg>