<svg id="Layer_1" data-name="Layer 1" xmlns="http://www.w3.org/2000/svg" width="120" height="49" viewBox="0 0 120 49"><defs><style>.cls-1{fill:#b6c3c7;}.cls-2{fill:#ffca4b;}.cls-3{fill:#fd9800;}.cls-4{fill:#eb6300;}</style></defs><g id="Layer_1-2" data-name="Layer 1"><path class="cls-1" d="M245.61,1548.18h4.07v7.7h7.41v-7.7h4.08v19.08h-4.08v-7.87h-7.41v7.87h-4.07Z" transform="translate(-188.77 -1533.22)"/><path class="cls-1" d="M273.87,1562.08h3.8v2.77l-2.39,2.41h-7.83l-2.4-2.41v-10.06l2.4-2.42h7.83l2.39,2.41v5.76h-8.76v3.54h5Zm-5-6.53v3h5v-3Z" transform="translate(-188.77 -1533.22)"/><path class="cls-1" d="M280.26,1567.26v-3.37l4.24-4.11-4.11-4v-3.38h3.94v2.47l2.62,2.52,2.59-2.52v-2.47h3.94v3.37l-4.1,4,4.24,4.11v3.37h-3.94v-2.46l-2.73-2.66-2.75,2.66v2.47Z" transform="translate(-188.77 -1533.22)"/><path class="cls-1" d="M308.77,1567.26h-3.3v-1.73l-1.71,1.73h-5.18l-2.43-2.41v-3.62l2.43-2.41H305v-3.08h-4.9v1.45h-3.72v-2.41l2.42-2.41h7.58l2.42,2.41Zm-8.81-6.33v3.23h4l1-.85v-2.38Z" transform="translate(-188.77 -1533.22)"/><polygon class="cls-2" points="21.28 44.3 4.09 34.43 9.62 31.25 21.28 37.95 21.28 34.38 4.09 24.5 9.62 21.33 21.28 28.03 21.28 24.45 4.09 14.58 4.1 14.58 0 12.22 0 12.22 0 36.78 21.28 49 21.28 49 21.28 44.3 21.28 44.3"/><polygon class="cls-3" points="21.28 0 0 12.22 4.1 14.58 21.28 4.7 38.47 14.58 42.56 12.22 21.28 0"/><polygon class="cls-4" points="38.47 14.58 21.28 24.45 21.28 28.03 32.94 21.33 38.47 24.5 21.28 34.38 21.28 37.95 32.94 31.25 38.47 34.43 21.28 44.3 21.28 49 42.56 36.78 42.56 12.22 38.47 14.58"/></g></svg>
